:FULLY-SPECIFIED
:FORCE-ALL-JOINTS-BE-3DOF
:DEGREES
442
root 1.53625 15.2462 -9.10013 5.49745 5.18529 -13.6654
lfemur -47.1219 16.514 3.43712
ltibia 62.9776 0 0
lfoot -24.9421 -9.91069 0
ltoes -11.8465 0 0
rfemur -14.7693 -3.11096 8.87144
rtibia 38.501 0 0
rfoot -14.1709 -13.5514 0
rtoes -49.911 0 0
lowerback 5.76018 1.45125 4.77487
upperback 0.983347 2.24948 1.01472
thorax -2.07132 1.09265 -1.79554
lowerneck -7.12083 0.0440265 5.65264
upperneck 0.882858 -0.424413 0.0349802
head 1.48051 -0.180084 -0.964871
lclavicle 1.6897e-15 -1.98785e-14 0
lhumerus -39.9241 -28.2865 97.8796
lradius 53.9607 0 0
lwrist 7.77465 0 0
lhand -20.6153 -1.72097 0
lfingers 7.12502 0 0
lthumb 5.74534 28.1675 0
rclavicle 1.6897e-15 -1.98785e-14 0
rhumerus -48.5337 -2.50516 -89.4237
rradius 66.5094 0 0
rwrist 12.8491 0 0
rhand -30.9481 -28.688 0
rfingers 7.12502 0 0
rthumb -4.23273 -778.609 0
443
root 1.49452 15.2504 -9.05481 5.59661 6.89176 -13.7854
lfemur -48.4022 17.5754 2.53879
ltibia 63.2263 0 0
lfoot -23.9015 -9.42779 0
ltoes -10.556 0 0
rfemur -14.1159 -3.97601 9.24876
rtibia 38.3783 0 0
rfoot -14.1824 -14.2454 0
rtoes -49.9865 0 0
lowerback 5.69065 1.44541 4.85809
upperback 0.954347 2.24498 1.04578
thorax -2.06077 1.08997 -1.80797
lowerneck -7.12177 -0.136392 5.46026
upperneck 0.628688 -0.643405 0.0462992
head 1.3912 -0.295258 -0.933372
lclavicle 1.11982e-14 -2.06736e-14 0
lhumerus -39.8374 -27.8608 98.0076
lradius 54.0961 0 0
lwrist 7.47432 0 0
lhand -21.4367 -2.25125 0
lfingers 7.12502 0 0
lthumb 4.95234 27.6588 0
rclavicle 1.11982e-14 -2.06736e-14 0
rhumerus -48.3364 -2.33846 -89.3581
rradius 66.3493 0 0
rwrist 12.7254 0 0
rhand -30.0204 -28.1331 0
rfingers 7.12502 0 0
rthumb -3.33689 -778.071 0
444
root 1.45278 15.2546 -9.0095 5.69577 8.59823 -13.9053
lfemur -49.6825 18.6369 1.64046
ltibia 63.475 0 0
lfoot -22.8608 -8.94488 0
ltoes -9.26557 0 0
rfemur -13.4624 -4.84105 9.62608
rtibia 38.2555 0 0
rfoot -14.1938 -14.9393 0
rtoes -50.0619 0 0
lowerback 5.62111 1.43958 4.9413
upperback 0.925346 2.24048 1.07683
thorax -2.05023 1.08729 -1.8204
lowerneck -7.12272 -0.31681 5.26788
upperneck 0.374517 -0.862398 0.0576182
head 1.3019 -0.410432 -0.901872
lclavicle 2.07068e-14 -2.14688e-14 0
lhumerus -39.7507 -27.4351 98.1355
lradius 54.2316 0 0
lwrist 7.174 0 0
lhand -22.2581 -2.78154 0
lfingers 7.12502 0 0
lthumb 4.15933 27.1501 0
rclavicle 2.07068e-14 -2.14688e-14 0
rhumerus -48.1391 -2.17175 -89.2925
rradius 66.1893 0 0
rwrist 12.6017 0 0
rhand -29.0926 -27.5782 0
rfingers 7.12502 0 0
rthumb -2.44106 -777.534 0
445
root 1.41105 15.2588 -8.96419 5.79493 10.3047 -14.0253
lfemur -50.9628 19.6983 0.742137
ltibia 63.7237 0 0
lfoot -21.8201 -8.46198 0
ltoes -7.97512 0 0
rfemur -12.809 -5.70609 10.0034
rtibia 38.1327 0 0
rfoot -14.2052 -15.6333 0
rtoes -50.1374 0 0
lowerback 5.55158 1.43374 5.02452
upperback 0.896345 2.23598 1.10789
thorax -2.03968 1.08462 -1.83283
lowerneck -7.12366 -0.497229 5.0755
upperneck 0.120347 -1.08139 0.0689372
head 1.21259 -0.525605 -0.870373
lclavicle 3.02153e-14 -2.22639e-14 0
lhumerus -39.664 -27.0094 98.2635
lradius 54.3671 0 0
lwrist 6.87367 0 0
lhand -23.0795 -3.31182 0
lfingers 7.12502 0 0
lthumb 3.36633 26.6414 0
rclavicle 3.02153e-14 -2.22639e-14 0
rhumerus -47.9418 -2.00505 -89.2269
rradius 66.0292 0 0
rwrist 12.478 0 0
rhand -28.1649 -27.0233 0
rfingers 7.12502 0 0
rthumb -1.54522 -776.997 0
446
root 1.43067 15.2873 -8.8991 5.71529 12.1188 -14.1928
lfemur -51.9117 20.5014 -0.713321
ltibia 63.7079 0 0
lfoot -21.2864 -7.60033 0
ltoes -6.55181 0 0
rfemur -11.8177 -6.32696 10.336
rtibia 37.5324 0 0
rfoot -13.3372 -16.0107 0
rtoes -50.3119 0 0
lowerback 5.30571 1.37433 5.26561
upperback 0.840713 2.15727 1.23115
thorax -1.96153 1.04572 -1.82955
lowerneck -7.12185 -0.685262 4.9211
upperneck 0.125073 -1.31897 0.0825807
head 1.20897 -0.644203 -0.846768
lclavicle 3.09773e-14 -2.51794e-14 0
lhumerus -39.9492 -26.6084 98.6974
lradius 54.2308 0 0
lwrist 6.40813 0 0
lhand -23.9318 -4.14323 0
lfingers 7.12502 0 0
lthumb 2.5432 25.8135 0
rclavicle 3.09773e-14 -2.51794e-14 0
rhumerus -48.0993 -2.00567 -88.7787
rradius 65.9371 0 0
rwrist 12.2881 0 0
rhand -27.9662 -26.5035 0
rfingers 7.12502 0 0
rthumb -1.35335 -776.478 0
447
root 1.45029 15.3158 -8.83401 5.63564 13.9328 -14.3602
lfemur -52.8605 21.3045 -2.16878
ltibia 63.692 0 0
lfoot -20.7528 -6.73868 0
ltoes -5.12851 0 0
rfemur -10.8264 -6.94783 10.6686
rtibia 36.9321 0 0
rfoot -12.4692 -16.3882 0
rtoes -50.4864 0 0
lowerback 5.05983 1.31491 5.5067
upperback 0.785081 2.07856 1.35441
thorax -1.88337 1.00681 -1.82627
lowerneck -7.12005 -0.873296 4.76671
upperneck 0.129798 -1.55655 0.0962241
head 1.20535 -0.7628 -0.823162
lclavicle 3.17393e-14 -2.80949e-14 0
lhumerus -40.2344 -26.2074 99.1313
lradius 54.0945 0 0
lwrist 5.94259 0 0
lhand -24.784 -4.97464 0
lfingers 7.12502 0 0
lthumb 1.72007 24.9855 0
rclavicle 3.17393e-14 -2.80949e-14 0
rhumerus -48.2568 -2.00629 -88.3305
rradius 65.845 0 0
rwrist 12.0983 0 0
rhand -27.7676 -25.9836 0
rfingers 7.12502 0 0
rthumb -1.16148 -775.959 0
448
root 1.46991 15.3443 -8.76892 5.556 15.7469 -14.5277
lfemur -53.8094 22.1076 -3.62424
ltibia 63.6761 0 0
lfoot -20.2191 -5.87703 0
ltoes -3.7052 0 0
rfemur -9.83516 -7.5687 11.0012
rtibia 36.3317 0 0
rfoot -11.6012 -16.7656 0
rtoes -50.6609 0 0
lowerback 4.81396 1.2555 5.74779
upperback 0.729449 1.99985 1.47767
thorax -1.80522 0.967909 -1.82299
lowerneck -7.11824 -1.06133 4.61231
upperneck 0.134523 -1.79413 0.109868
head 1.20173 -0.881398 -0.799557
lclavicle 3.25013e-14 -3.10104e-14 0
lhumerus -40.5196 -25.8064 99.5652
lradius 53.9582 0 0
lwrist 5.47705 0 0
lhand -25.6363 -5.80604 0
lfingers 7.12502 0 0
lthumb 0.896945 24.1576 0
rclavicle 3.25013e-14 -3.10104e-14 0
rhumerus -48.4142 -2.00692 -87.8824
rradius 65.7529 0 0
rwrist 11.9084 0 0
rhand -27.569 -25.4638 0
rfingers 7.12502 0 0
rthumb -0.969603 -775.44 0
449
root 1.48954 15.3727 -8.70383 5.47636 17.561 -14.6952
lfemur -54.7583 22.9107 -5.07969
ltibia 63.6603 0 0
lfoot -19.6855 -5.01538 0
ltoes -2.28189 0 0
rfemur -8.84388 -8.18957 11.3338
rtibia 35.7314 0 0
rfoot -10.7332 -17.143 0
rtoes -50.8355 0 0
lowerback 4.56809 1.19609 5.98888
upperback 0.673818 1.92113 1.60093
thorax -1.72706 0.929005 -1.81971
lowerneck -7.11643 -1.24936 4.45791
upperneck 0.139249 -2.03171 0.123511
head 1.19812 -0.999995 -0.775951
lclavicle 3.32633e-14 -3.39259e-14 0
lhumerus -40.8049 -25.4055 99.9992
lradius 53.8218 0 0
lwrist 5.0115 0 0
lhand -26.4886 -6.63745 0
lfingers 7.12502 0 0
lthumb 0.0738167 23.3296 0
rclavicle 3.32633e-14 -3.39259e-14 0
rhumerus -48.5717 -2.00754 -87.4342
rradius 65.6608 0 0
rwrist 11.7185 0 0
rhand -27.3703 -24.944 0
rfingers 7.12502 0 0
rthumb -0.77773 -774.922 0
450
root 1.50916 15.4012 -8.63874 5.39671 19.375 -14.8626
lfemur -55.7071 23.7138 -6.53515
ltibia 63.6444 0 0
lfoot -19.1519 -4.15373 0
ltoes -0.858582 0 0
rfemur -7.8526 -8.81044 11.6664
rtibia 35.1311 0 0
rfoot -9.86516 -17.5205 0
rtoes -51.01 0 0
lowerback 4.32221 1.13667 6.22997
upperback 0.618186 1.84242 1.72419
thorax -1.64891 0.890102 -1.81643
lowerneck -7.11463 -1.4374 4.30352
upperneck 0.143975 -2.26929 0.137155
head 1.1945 -1.11859 -0.752346
lclavicle 3.40253e-14 -3.68414e-14 0
lhumerus -41.0901 -25.0045 100.433
lradius 53.6855 0 0
lwrist 4.54596 0 0
lhand -27.3408 -7.46886 0
lfingers 7.12502 0 0
lthumb -0.749312 22.5016 0
rclavicle 3.40253e-14 -3.68414e-14 0
rhumerus -48.7292 -2.00816 -86.986
rradius 65.5687 0 0
rwrist 11.5287 0 0
rhand -27.1716 -24.4241 0
rfingers 7.12502 0 0
rthumb -0.585857 -774.403 0
451
root 1.52878 15.4297 -8.57365 5.31707 21.1891 -15.0301
lfemur -56.656 24.5169 -7.99061
ltibia 63.6286 0 0
lfoot -18.6182 -3.29208 0
ltoes 0.564725 0 0
rfemur -6.86132 -9.43131 11.999
rtibia 34.5308 0 0
rfoot -8.99715 -17.8979 0
rtoes -51.1845 0 0
lowerback 4.07634 1.07726 6.47106
upperback 0.562554 1.76371 1.84745
thorax -1.57075 0.851198 -1.81315
lowerneck -7.11282 -1.62543 4.14912
upperneck 0.1487 -2.50687 0.150798
head 1.19088 -1.23719 -0.72874
lclavicle 3.47873e-14 -3.97569e-14 0
lhumerus -41.3753 -24.6035 100.867
lradius 53.5492 0 0
lwrist 4.08042 0 0
lhand -28.1931 -8.30027 0
lfingers 7.12502 0 0
lthumb -1.57244 21.6737 0
rclavicle 3.47873e-14 -3.97569e-14 0
rhumerus -48.8867 -2.00878 -86.5378
rradius 65.4766 0 0
rwrist 11.3388 0 0
rhand -26.973 -23.9043 0
rfingers 7.12502 0 0
rthumb -0.393985 -773.884 0
